# xmcd CD database file
# Copyright (C) 1993-1998 Ti Kan
#
# Track frame offsets:
#	150
#	18690
#	40220
#	65065
#	85265
#	109242
#	130867
#	149010
#
# Disc length: 2293 seconds
#
# Revision: 1
# Processed by: cddbd v1.4b41PL1 Copyright (c) Steve Scherf et al.
# Submitted via: CDmax 1.5.3
#
DISCID=7708f308
DTITLE=Larry Yates and the Blues Monsters - Red Hot Hat
DYEAR=1900
DGENRE=
TTITLE0=So Good
TTITLE1=I Refuse
TTITLE2=2 O'Clock in the Morning
TTITLE3=Blue Monster
TTITLE4=Been There and Done It
TTITLE5=Long Gone
TTITLE6=Trouble
TTITLE7=Red Hot Hat
EXTD=
EXTT0=
EXTT1=
EXTT2=
EXTT3=
EXTT4=
EXTT5=
EXTT6=
EXTT7=
PLAYORDER=
